<?xml version="1.0" encoding="UTF-8" standalone="no"?>
<!-- Created with Inkscape (http://www.inkscape.org/) -->

<svg
   xmlns:dc="http://purl.org/dc/elements/1.1/"
   xmlns:cc="http://creativecommons.org/ns#"
   xmlns:rdf="http://www.w3.org/1999/02/22-rdf-syntax-ns#"
   xmlns:svg="http://www.w3.org/2000/svg"
   xmlns="http://www.w3.org/2000/svg"
   xmlns:sodipodi="http://sodipodi.sourceforge.net/DTD/sodipodi-0.dtd"
   xmlns:inkscape="http://www.inkscape.org/namespaces/inkscape"
   width="87mm"
   height="57mm"
   viewBox="0 0 87 57"
   version="1.1"
   id="svg9191"
   inkscape:version="0.92.1 r"
   sodipodi:docname="01_back.svg">
  <defs
     id="defs9185">
    <filter
       style="color-interpolation-filters:sRGB"
       inkscape:label="Drop Shadow"
       id="filter12915">
      <feFlood
         flood-opacity="0.498039"
         flood-color="rgb(0,0,0)"
         result="flood"
         id="feFlood12905" />
      <feComposite
         in="flood"
         in2="SourceGraphic"
         operator="in"
         result="composite1"
         id="feComposite12907" />
      <feGaussianBlur
         in="composite1"
         stdDeviation="0.7"
         result="blur"
         id="feGaussianBlur12909" />
      <feOffset
         dx="0"
         dy="0"
         result="offset"
         id="feOffset12911" />
      <feComposite
         in="SourceGraphic"
         in2="offset"
         operator="over"
         result="composite2"
         id="feComposite12913" />
    </filter>
    <filter
       style="color-interpolation-filters:sRGB"
       inkscape:label="Drop Shadow"
       id="filter12915-6">
      <feFlood
         flood-opacity="0.498039"
         flood-color="rgb(0,0,0)"
         result="flood"
         id="feFlood12905-9" />
      <feComposite
         in="flood"
         in2="SourceGraphic"
         operator="in"
         result="composite1"
         id="feComposite12907-3" />
      <feGaussianBlur
         in="composite1"
         stdDeviation="0.7"
         result="blur"
         id="feGaussianBlur12909-3" />
      <feOffset
         dx="0"
         dy="0"
         result="offset"
         id="feOffset12911-8" />
      <feComposite
         in="SourceGraphic"
         in2="offset"
         operator="over"
         result="composite2"
         id="feComposite12913-0" />
    </filter>
  </defs>
  <sodipodi:namedview
     id="base"
     pagecolor="#ffffff"
     bordercolor="#666666"
     borderopacity="1.0"
     inkscape:pageopacity="0.0"
     inkscape:pageshadow="2"
     inkscape:zoom="1.4184524"
     inkscape:cx="438.40901"
     inkscape:cy="-44.127315"
     inkscape:document-units="mm"
     inkscape:current-layer="layer1"
     showgrid="false"
     fit-margin-top="1"
     fit-margin-left="1"
     fit-margin-right="1"
     fit-margin-bottom="1"
     inkscape:snap-page="true"
     inkscape:window-width="3440"
     inkscape:window-height="1387"
     inkscape:window-x="3200"
     inkscape:window-y="0"
     inkscape:window-maximized="1" />
  <metadata
     id="metadata9188">
    <rdf:RDF>
      <cc:Work
         rdf:about="">
        <dc:format>image/svg+xml</dc:format>
        <dc:type
           rdf:resource="http://purl.org/dc/dcmitype/StillImage" />
        <dc:title></dc:title>
      </cc:Work>
    </rdf:RDF>
  </metadata>
  <g
     inkscape:label="Layer 1"
     inkscape:groupmode="layer"
     id="layer1"
     transform="translate(269.52975,54.132468)">
    <path
       style="color:#000000;clip-rule:nonzero;display:inline;overflow:visible;visibility:visible;opacity:1;isolation:auto;mix-blend-mode:normal;color-interpolation:sRGB;color-interpolation-filters:linearRGB;solid-color:#000000;solid-opacity:1;fill:#5c84a6;fill-opacity:1;fill-rule:nonzero;stroke:none;stroke-width:0.2;stroke-linecap:round;stroke-linejoin:bevel;stroke-miterlimit:4;stroke-dasharray:none;stroke-dashoffset:0;stroke-opacity:1;color-rendering:auto;image-rendering:auto;shape-rendering:auto;text-rendering:auto;enable-background:accumulate"
       d="m -269.52975,-54.132468 v 57 h 87 v -57 z m 5.9997,6.000079 h 75.00007 v 8.577773 h -75.00007 z m 0,9.077999 h 75.00007 v 8.573638 h -75.00007 z m 0,9.073348 h 75.00007 v 8.574154 h -75.00007 z m 0,9.073865 h 75.00007 v 8.573638 h -75.00007 z m 0,9.073864 h 75.00007 v 8.7007624 h -75.00007 z"
       id="rect4562"
       inkscape:connector-curvature="0"
       sodipodi:nodetypes="cccccccccccccccccccccccccccccc" />
    <g
       id="g12807"
       style="filter:url(#filter12915-6)"
       transform="matrix(0.84661116,0,0,0.84661116,-378.17349,-117.04938)">
      <g
         id="g12218"
         style="fill:#ff5a79"
         transform="matrix(0.26458333,0,0,0.26458333,208.64496,79.158373)">
        <path
           id="path12208"
           d="M 10.9,3.3 C 10.9,3.3 4.8,18.5 2,41.4 1.8,43.4 6.5,41.6 8.1,41 11.8,18.5 17,3 17,3 15.5,2.8 10.9,3.3 10.9,3.3"
           inkscape:connector-curvature="0" />
        <path
           id="path12210"
           d="M 37.3,4.9 C 39.5,8.4 38.5,14 37.2,19.5 35,28.4 29.9,37.6 21.7,37.6 13.9,37.6 13.1,29.1 15.2,20.5 16.5,15.3 18.5,9.9 21.7,6.3 24.1,3.6 27.4,2 30.7,2 34,2 36.2,2.6 37.3,4.9 M 21.4,20.6 c -1.8,7.3 -0.9,10.9 1.9,10.9 3,0 5.9,-4.6 7.7,-12.2 1.7,-7.2 0.9,-10.5 -2,-10.5 -2.7,0 -5.7,4 -7.6,11.8"
           inkscape:connector-curvature="0" />
        <path
           id="path12212"
           d="m 60.7,5 c 2.2,3.5 1.2,9.1 -0.1,14.6 -2.2,8.9 -7.2,18.1 -15.5,18.1 -7.8,0 -8.6,-8.5 -6.5,-17.1 C 39.9,15.4 41.9,10 45.1,6.4 47.5,3.7 50.9,2 54.2,2 c 3.2,0 5.4,0.6 6.5,3 M 44.9,20.6 c -1.8,7.3 -0.9,10.9 1.9,10.9 3,0 5.9,-4.6 7.7,-12.2 1.7,-7.2 0.9,-10.5 -2,-10.5 -2.7,0 -5.7,4 -7.6,11.8"
           inkscape:connector-curvature="0" />
        <path
           id="path12214"
           d="m 47.6,48.6 c -5.4,0 -33.3,2.2 -44.4,3.1 -0.8,-2.9 0.2,-5.4 1.5,-6.6 5.5,-1 42.3,-3.9 45.1,-2.3 -0.4,2 -1.3,4.5 -2.2,5.8"
           inkscape:connector-curvature="0" />
        <path
           id="path12216"
           d="M 42.9,59.8 C 37.4,59.8 20,61 8.7,62 c -0.8,-3.2 0.2,-6 1.5,-7.4 5.7,-1.2 32.1,-3.1 34.9,-1.3 -0.4,2.3 -1.2,5.1 -2.2,6.5"
           inkscape:connector-curvature="0" />
      </g>
    </g>
  </g>
</svg>
